<svg width="24" height="33" viewBox="0 0 24 33" fill="none" xmlns="http://www.w3.org/2000/svg">
<path d="M18 3C18 4.6875 16.625 6 15 6C13.3125 6 12 4.6875 12 3C12 1.375 13.3125 0 15 0C16.625 0 18 1.375 18 3ZM15.1875 14.4375L14 19.1875L17.0625 22.3125C17.625 22.875 18 23.625 18 24.4375V30C18 31.125 17.0625 32 16 32C14.875 32 14 31.125 14 30V24.875L9.37502 20.25C8.37502 19.25 7.93752 17.8125 8.31252 16.5L9.56252 11.25C10.0625 9.0625 12.25 7.8125 14.375 8.3125C15.5625 8.625 16.5625 9.375 17.25 10.375L19.0625 13H21V11.5C21 10.6875 21.625 10 22.5 10C23.3125 10 24 10.6875 24 11.5V30.5C24 31.375 23.3125 32 22.5 32C21.625 32 21 31.375 21 30.5V17H18.5C17.5 17 16.5625 16.5 16 15.6875L15.1875 14.4375ZM5.06252 29.5L7.31252 20.875C7.50002 21.1875 7.68752 21.4375 7.93752 21.625L10.5625 24.25L8.87502 30.5625C8.62502 31.625 7.50002 32.25 6.43752 31.9375C5.37502 31.6875 4.75002 30.5625 5.06252 29.5ZM8.50002 7.875L6.31252 16.6875C6.12502 17.4375 5.37502 17.9375 4.62502 17.8125L1.62502 17.3125C0.750025 17.1875 0.187525 16.3125 0.437525 15.4375L1.93752 9.6875C2.56252 7.5625 4.56252 6 6.81252 6H7.06252C8.00002 6 8.75002 6.9375 8.50002 7.875Z" fill="#EF6E62"/>
</svg>
