<svg width="14" height="16" viewBox="0 0 14 16" fill="none" xmlns="http://www.w3.org/2000/svg">
<path d="M2.6875 0.1875L1.90625 1.5C1.8125 1.71875 1.75 1.9375 1.75 2.1875V2.25C1.75 2.96875 2.28125 3.5 3 3.5C3.6875 3.5 4.25 2.96875 4.25 2.25V2.1875C4.25 1.9375 4.1875 1.71875 4.0625 1.5L3.28125 0.1875C3.21875 0.09375 3.125 0 3 0C2.875 0 2.75 0.09375 2.6875 0.1875ZM6.6875 0.1875L5.90625 1.5C5.8125 1.71875 5.75 1.9375 5.75 2.1875V2.25C5.75 2.96875 6.28125 3.5 7 3.5C7.6875 3.5 8.25 2.96875 8.25 2.25V2.1875C8.25 1.9375 8.1875 1.71875 8.0625 1.5L7.28125 0.1875C7.21875 0.09375 7.125 0 7 0C6.875 0 6.75 0.09375 6.6875 0.1875ZM9.90625 1.5C9.8125 1.71875 9.75 1.9375 9.75 2.1875V2.25C9.75 2.96875 10.2812 3.5 11 3.5C11.6875 3.5 12.25 2.96875 12.25 2.25V2.1875C12.25 1.9375 12.1875 1.71875 12.0625 1.5L11.2812 0.1875C11.2188 0.09375 11.125 0 11 0C10.875 0 10.75 0.09375 10.6875 0.1875L9.90625 1.5ZM4 5.5C4 4.96875 3.53125 4.5 3 4.5C2.4375 4.5 2 4.96875 2 5.5V7C0.875 7 0 7.90625 0 9V11.2188C0.25 11.4062 0.5625 11.5 0.875 11.5C1.3125 11.5 1.75 11.3125 2.09375 11.0938C2.25 11 2.40625 10.875 2.5 10.7812C2.53125 10.75 2.5625 10.7188 2.59375 10.6875C2.625 10.6875 2.625 10.6875 2.625 10.6562C2.71875 10.5625 2.875 10.5 3 10.5312C3.15625 10.5312 3.28125 10.5938 3.375 10.6875C3.375 10.6875 3.375 10.6875 3.375 10.7188C3.40625 10.7188 3.4375 10.75 3.5 10.8125C3.5625 10.875 3.6875 11 3.84375 11.0938C4.1875 11.3125 4.5625 11.5 5 11.5C5.40625 11.5 5.8125 11.3125 6.125 11.0938C6.28125 11 6.40625 10.875 6.5 10.8125C6.53125 10.75 6.5625 10.7188 6.59375 10.7188C6.59375 10.6875 6.59375 10.6875 6.625 10.6875C6.71875 10.5625 6.84375 10.5312 7 10.5312C7.125 10.5312 7.28125 10.5938 7.375 10.6875C7.375 10.6875 7.375 10.6875 7.375 10.7188C7.40625 10.7188 7.4375 10.75 7.5 10.8125C7.5625 10.875 7.6875 11 7.84375 11.0938C8.1875 11.3125 8.5625 11.5 9 11.5C9.40625 11.5 9.8125 11.3125 10.125 11.0938C10.2812 11 10.4062 10.875 10.5 10.8125C10.5312 10.75 10.5625 10.7188 10.5938 10.7188C10.5938 10.6875 10.5938 10.6875 10.625 10.6875C10.7188 10.5938 10.8438 10.5312 10.9688 10.5312C11.125 10.5 11.25 10.5625 11.3438 10.6562C11.3438 10.6875 11.375 10.6875 11.375 10.6875C11.4062 10.7188 11.4375 10.75 11.5 10.7812C11.5938 10.875 11.7188 11 11.9062 11.0938C12.25 11.3125 12.6562 11.5 13.0938 11.5C13.4375 11.5 13.7188 11.4062 14 11.2188V9C14 7.90625 13.0938 7 12 7V5.5C12 4.96875 11.5312 4.5 11 4.5C10.4375 4.5 10 4.96875 10 5.5V7H8V5.5C8 4.96875 7.53125 4.5 7 4.5C6.4375 4.5 6 4.96875 6 5.5V7H4V5.5ZM14 12.3438C13.7188 12.4375 13.4062 12.5 13.0938 12.5C12.375 12.5 11.75 12.2188 11.3438 11.9375C11.2188 11.8438 11.0938 11.75 11 11.6875C10.9062 11.75 10.8125 11.8438 10.6875 11.9375C10.2812 12.1875 9.6875 12.5 9 12.5C8.28125 12.5 7.6875 12.1875 7.28125 11.9375C7.15625 11.8438 7.0625 11.7812 7 11.6875C6.90625 11.7812 6.8125 11.8438 6.6875 11.9375C6.28125 12.1875 5.6875 12.5 5 12.5C4.28125 12.5 3.6875 12.1875 3.28125 11.9375C3.15625 11.8438 3.0625 11.75 2.96875 11.6875C2.875 11.75 2.75 11.8438 2.625 11.9375C2.21875 12.2188 1.59375 12.5 0.875 12.5C0.5625 12.5 0.25 12.4375 0 12.3438V15C0 15.5625 0.4375 16 1 16H13C13.5312 16 14 15.5625 14 15V12.3438Z" fill="white"/>
</svg>
