<svg width="36" height="36" viewBox="0 0 36 36" fill="none" xmlns="http://www.w3.org/2000/svg">
<path d="M28.8333 28.8333H7.16667C6.59203 28.8333 6.04093 28.605 5.6346 28.1987C5.22827 27.7923 5 27.2412 5 26.6666V11.4999C5 10.9253 5.22827 10.3742 5.6346 9.96785C6.04093 9.56153 6.59203 9.33325 7.16667 9.33325H11.5L13.6667 6.08325H22.3333L24.5 9.33325H28.8333C29.408 9.33325 29.9591 9.56153 30.3654 9.96785C30.7717 10.3742 31 10.9253 31 11.4999V26.6666C31 27.2412 30.7717 27.7923 30.3654 28.1987C29.9591 28.605 29.408 28.8333 28.8333 28.8333Z" stroke="#414762" stroke-linecap="round" stroke-linejoin="round"/>
<path d="M18 23.4166C20.6924 23.4166 22.875 21.234 22.875 18.5416C22.875 15.8492 20.6924 13.6666 18 13.6666C15.3076 13.6666 13.125 15.8492 13.125 18.5416C13.125 21.234 15.3076 23.4166 18 23.4166Z" stroke="#414762" stroke-linecap="round" stroke-linejoin="round"/>
</svg>
