<svg width="86" height="63" viewBox="0 0 86 63" fill="none" xmlns="http://www.w3.org/2000/svg">
<path d="M77.0288 62.8071C75.5271 62.8071 74.026 62.2241 72.88 61.0587L62.8643 50.8681H25.3994C11.8119 50.8681 0.757812 39.6214 0.757812 25.7965C0.757812 11.9717 11.8119 0.724609 25.3994 0.724609H79.3755C82.6158 0.724609 85.2427 3.39737 85.2427 6.69426C85.2427 9.99081 82.6158 12.6636 79.3755 12.6636H25.3994C18.2822 12.6636 12.4918 18.555 12.4918 25.7965C12.4918 33.038 18.2822 38.9292 25.3994 38.9292H65.2948C66.8508 38.9292 68.343 39.5583 69.4436 40.6775L81.1776 52.6165C83.4687 54.9475 83.4687 58.7277 81.1776 61.0587C80.0316 62.2241 78.5306 62.8071 77.0288 62.8071Z" fill="#F59784"/>
<path d="M37.133 25.7963C37.133 28.4337 35.0317 30.5719 32.4393 30.5719C29.8472 30.5719 27.7456 28.4337 27.7456 25.7963C27.7456 23.1589 29.8472 21.0206 32.4393 21.0206C35.0317 21.0206 37.133 23.1589 37.133 25.7963Z" fill="#F59784"/>
<path d="M53.5612 25.7963C53.5612 28.4337 51.4599 30.5719 48.8675 30.5719C46.2754 30.5719 44.1738 28.4337 44.1738 25.7963C44.1738 23.1589 46.2754 21.0206 48.8675 21.0206C51.4599 21.0206 53.5612 23.1589 53.5612 25.7963Z" fill="#F59784"/>
<path d="M69.9879 25.7963C69.9879 28.4337 67.8867 30.5719 65.2939 30.5719C62.7022 30.5719 60.6006 28.4337 60.6006 25.7963C60.6006 23.1589 62.7022 21.0206 65.2939 21.0206C67.8867 21.0206 69.9879 23.1589 69.9879 25.7963Z" fill="#F59784"/>
</svg>
