<svg width="32" height="32" viewBox="0 0 32 32" fill="none" xmlns="http://www.w3.org/2000/svg">
<path d="M22 30.875C20.125 31.625 18.0625 32 16 32C13.875 32 11.8125 31.625 10 30.875V18C10 17.5 9.5 17 9 17C8.4375 17 8 17.5 8 18V29.875C3.1875 27.125 0 21.9375 0 16C0 7.1875 7.125 0 16 0C24.8125 0 32 7.1875 32 16C32 21.9375 28.75 27.125 24 29.875V18C24 17.5 23.5 17 23 17C22.4375 17 22 17.5 22 18V30.875ZM12.1875 14.625C12.5 15.0625 13.125 15.1875 13.5625 14.8125C14 14.5 14.125 13.875 13.75 13.4375C11.875 10.875 8.0625 10.875 6.1875 13.4375C5.8125 13.875 5.9375 14.5 6.375 14.8125C6.8125 15.1875 7.4375 15.0625 7.75 14.625C8.875 13.1875 11.0625 13.1875 12.1875 14.625ZM19.75 14.625C20.875 13.1875 23.0625 13.1875 24.1875 14.625C24.5 15.0625 25.125 15.1875 25.5625 14.8125C26 14.5 26.125 13.875 25.75 13.4375C23.875 10.875 20.0625 10.875 18.1875 13.4375C17.8125 13.875 17.9375 14.5 18.375 14.8125C18.8125 15.1875 19.4375 15.0625 19.75 14.625ZM13 21V23C13 24.6875 14.3125 26 16 26C17.625 26 19 24.6875 19 23V21C19 19.375 17.625 18 16 18C14.3125 18 13 19.375 13 21Z" fill="#677788"/>
</svg>
