<svg width="32" height="32" viewBox="0 0 32 32" fill="none" xmlns="http://www.w3.org/2000/svg">
<path d="M20 6H12L9 1.5625C8.5625 0.9375 9.0625 0 9.8125 0H22.125C22.875 0 23.375 0.9375 22.9375 1.5625L20 6ZM12 8H20C20.1875 8.1875 20.5 8.375 20.8125 8.5625C24.3125 10.8125 32 15.6875 32 26C32 29.3125 29.3125 32 26 32H6C2.6875 32 0 29.3125 0 26C0 15.6875 7.625 10.8125 11.1875 8.5625C11.4375 8.375 11.75 8.1875 12 8ZM17.25 14C17.25 13.3125 16.6875 12.75 16 12.75C15.25 12.75 14.6875 13.3125 14.6875 14V14.375C14.375 14.5 14.0625 14.5625 13.75 14.75C12.8125 15.125 12 15.9375 11.75 17.0625C11.6875 17.6875 11.75 18.3125 12 18.875C12.25 19.4375 12.6875 19.8125 13.0625 20.125C13.8125 20.625 14.75 20.875 15.5 21.125H15.625C16.5 21.4375 17.0625 21.625 17.4375 21.875C17.625 22 17.6875 22.0625 17.6875 22.125C17.6875 22.1875 17.75 22.3125 17.6875 22.5625C17.6875 22.75 17.5625 22.9375 17.1875 23.125C16.8125 23.25 16.1875 23.375 15.375 23.25C15 23.1875 14.375 22.9375 13.75 22.75C13.625 22.6875 13.5 22.625 13.375 22.625C12.6875 22.375 12 22.75 11.8125 23.375C11.5625 24.0625 11.9375 24.75 12.5625 25C12.6875 25 12.75 25.0625 12.875 25.0625C13.375 25.25 14.125 25.5 14.75 25.625V26C14.75 26.75 15.3125 27.3125 16 27.3125C16.6875 27.3125 17.25 26.75 17.25 26V25.6875C17.5625 25.625 17.875 25.5 18.1875 25.375C19.1875 25 20 24.1875 20.1875 23C20.3125 22.3125 20.25 21.6875 20 21.125C19.75 20.5625 19.375 20.1875 18.9375 19.875C18.1875 19.3125 17.1875 19 16.375 18.75C15.4375 18.5 14.875 18.3125 14.5 18.0625C14.3125 17.9375 14.25 17.875 14.25 17.8125C14.25 17.8125 14.1875 17.75 14.25 17.5C14.25 17.375 14.375 17.1875 14.75 17C15.1875 16.8125 15.8125 16.75 16.5625 16.875C16.8125 16.875 17.6875 17.0625 17.9375 17.125C18.5625 17.3125 19.25 16.875 19.4375 16.25C19.625 15.5625 19.25 14.875 18.5625 14.6875C18.25 14.625 17.625 14.5 17.25 14.4375V14Z" fill="#677788"/>
</svg>
