<svg width="32" height="32" viewBox="0 0 32 32" fill="none" xmlns="http://www.w3.org/2000/svg">
<path d="M11.875 4.3125L14.0625 8H14H9.5C8.0625 8 7 6.9375 7 5.5C7 4.125 8.0625 3 9.5 3H9.625C10.5625 3 11.4375 3.5 11.875 4.3125ZM4 5.5C4 6.4375 4.1875 7.25 4.5625 8H2C0.875 8 0 8.9375 0 10V14C0 15.125 0.875 16 2 16H30C31.0625 16 32 15.125 32 14V10C32 8.9375 31.0625 8 30 8H27.375C27.75 7.25 28 6.4375 28 5.5C28 2.5 25.5 0 22.5 0H22.3125C20.3125 0 18.5 1.0625 17.5 2.8125L16 5.375L14.4375 2.8125C13.4375 1.0625 11.625 0 9.625 0H9.5C6.4375 0 4 2.5 4 5.5ZM25 5.5C25 6.9375 23.875 8 22.5 8H18H17.875L20.0625 4.3125C20.5625 3.5 21.375 3 22.3125 3H22.5C23.875 3 25 4.125 25 5.5ZM2 18V29C2 30.6875 3.3125 32 5 32H14V18H2ZM18 32H27C28.625 32 30 30.6875 30 29V18H18V32Z" fill="#EF6E62"/>
</svg>
