<svg width="18" height="24" viewBox="0 0 18 24" fill="none" xmlns="http://www.w3.org/2000/svg">
<path d="M1.5 1.5C1.5 0.703125 2.15625 0 3 0C3.79688 0 4.5 0.703125 4.5 1.5V11.25H1.5V1.5ZM10.5 9C10.5 8.20312 11.1562 7.5 12 7.5C12.7969 7.5 13.5 8.20312 13.5 9V12C13.5 12.8438 12.7969 13.5 12 13.5C11.1562 13.5 10.5 12.8438 10.5 12V9ZM7.5 6C8.29688 6 9 6.70312 9 7.5V9.75C9 10.5938 8.29688 11.25 7.5 11.25C6.65625 11.25 6 10.5938 6 9.75V7.5C6 6.70312 6.65625 6 7.5 6ZM15 10.5C15 9.70312 15.6562 9 16.5 9C17.2969 9 18 9.70312 18 10.5V13.5C18 14.3438 17.2969 15 16.5 15C15.6562 15 15 14.3438 15 13.5V10.5ZM10.5 14.625C10.9219 14.8594 11.4375 15 12 15C12.6094 15 13.1719 14.8125 13.6406 14.5312C14.0625 15.7031 15.1875 16.5 16.5 16.5C17.0156 16.5 17.5312 16.3594 18 16.125V16.5C18 20.6719 14.625 24 10.5 24H7.59375C5.57812 24 3.70312 23.25 2.29688 21.8438L1.73438 21.2812C0.609375 20.1562 0 18.6094 0 17.0156V15.75C0 14.1094 1.3125 12.75 3 12.75H7.125C8.15625 12.75 9 13.5938 9 14.625C9 15.7031 8.15625 16.5 7.125 16.5H4.5C4.07812 16.5 3.75 16.875 3.75 17.25C3.75 17.6719 4.07812 18 4.5 18H7.125C8.95312 18 10.5 16.5 10.5 14.625Z" fill="#EF6E62"/>
</svg>
