<svg width="24" height="24" viewBox="0 0 24 24" fill="none" xmlns="http://www.w3.org/2000/svg">
<path d="M12 16.5C14.4853 16.5 16.5 14.4853 16.5 12C16.5 9.51472 14.4853 7.5 12 7.5C9.51472 7.5 7.5 9.51472 7.5 12C7.5 14.4853 9.51472 16.5 12 16.5Z" stroke="#33374B" stroke-linecap="round" stroke-linejoin="round"/>
<path d="M17.2218 6.10303C17.4593 6.32178 17.6843 6.54678 17.8968 6.77803L20.4562 7.14365C20.8732 7.86788 21.1946 8.64308 21.4124 9.4499L19.8562 11.5218C19.8562 11.5218 19.8843 12.1593 19.8562 12.478L21.4124 14.5499C21.1956 15.3571 20.8741 16.1324 20.4562 16.8562L17.8968 17.2218C17.8968 17.2218 17.4562 17.6812 17.2218 17.8968L16.8562 20.4562C16.1319 20.8732 15.3567 21.1946 14.5499 21.4124L12.478 19.8562C12.1599 19.8843 11.8399 19.8843 11.5218 19.8562L9.4499 21.4124C8.64274 21.1956 7.8674 20.8741 7.14365 20.4562L6.77803 17.8968C6.54678 17.678 6.32178 17.453 6.10303 17.2218L3.54365 16.8562C3.12664 16.1319 2.80521 15.3567 2.5874 14.5499L4.14365 12.478C4.14365 12.478 4.11553 11.8405 4.14365 11.5218L2.5874 9.4499C2.8042 8.64274 3.12568 7.8674 3.54365 7.14365L6.10303 6.77803C6.32178 6.54678 6.54678 6.32178 6.77803 6.10303L7.14365 3.54365C7.86788 3.12664 8.64308 2.80521 9.4499 2.5874L11.5218 4.14365C11.8399 4.11552 12.1599 4.11552 12.478 4.14365L14.5499 2.5874C15.3571 2.8042 16.1324 3.12568 16.8562 3.54365L17.2218 6.10303Z" stroke="#33374B" stroke-linecap="round" stroke-linejoin="round"/>
</svg>
